<mxfile host="65bd71144e">
    <diagram id="H0gwphuF5wg16k7An4Gz" name="Page-1">
        <mxGraphModel dx="2224" dy="1565" grid="0" gridSize="10" guides="1" tooltips="1" connect="1" arrows="1" fold="1" page="0" pageScale="1" pageWidth="827" pageHeight="1169" math="0" shadow="0">
            <root>
                <mxCell id="0"/>
                <mxCell id="1" parent="0"/>
                <mxCell id="92" value="" style="html=1;verticalAlign=bottom;labelBackgroundColor=none;endArrow=block;endFill=1;rounded=0;startSize=14;endSize=14;sourcePerimeterSpacing=8;targetPerimeterSpacing=8;exitX=0.5;exitY=0;exitDx=0;exitDy=0;entryX=1;entryY=1;entryDx=0;entryDy=0;" edge="1" parent="1" source="65" target="38">
                    <mxGeometry width="160" relative="1" as="geometry">
                        <mxPoint x="138" y="-151.5" as="sourcePoint"/>
                        <mxPoint x="-50" y="-504" as="targetPoint"/>
                        <Array as="points">
                            <mxPoint x="107" y="-242"/>
                            <mxPoint x="-60" y="-420"/>
                        </Array>
                    </mxGeometry>
                </mxCell>
                <mxCell id="23" value="" style="ellipse;fillColor=strokeColor;" parent="1" vertex="1">
                    <mxGeometry x="-824" y="-453" width="30" height="30" as="geometry"/>
                </mxCell>
                <mxCell id="24" value="Scegli opzione" style="html=1;align=center;verticalAlign=top;rounded=1;absoluteArcSize=1;arcSize=10;dashed=0;" parent="1" vertex="1">
                    <mxGeometry x="-879" y="-352.5" width="140" height="40" as="geometry"/>
                </mxCell>
                <mxCell id="25" value="Operatore &#10;registrato?" style="rhombus;" parent="1" vertex="1">
                    <mxGeometry x="-687" y="-365" width="111" height="65" as="geometry"/>
                </mxCell>
                <mxCell id="37" value="Accesso all'area riservata&lt;br&gt;come nuovo operatore" style="html=1;align=center;verticalAlign=top;rounded=1;absoluteArcSize=1;arcSize=10;dashed=0;" parent="1" vertex="1">
                    <mxGeometry x="-322.5" y="-337" width="140" height="40" as="geometry"/>
                </mxCell>
                <mxCell id="38" value="Accesso all'area riservata" style="html=1;align=center;verticalAlign=top;rounded=1;absoluteArcSize=1;arcSize=10;dashed=0;" parent="1" vertex="1">
                    <mxGeometry x="-323" y="-562" width="140" height="40" as="geometry"/>
                </mxCell>
                <mxCell id="45" value="" style="html=1;verticalAlign=bottom;labelBackgroundColor=none;endArrow=block;endFill=1;rounded=0;startSize=14;endSize=14;sourcePerimeterSpacing=8;targetPerimeterSpacing=8;entryX=0.5;entryY=1;entryDx=0;entryDy=0;exitX=1;exitY=1;exitDx=0;exitDy=0;" parent="1" source="48" target="48" edge="1">
                    <mxGeometry width="160" relative="1" as="geometry">
                        <mxPoint x="-384" y="-393.00325732899046" as="sourcePoint"/>
                        <mxPoint x="-446.442" y="-378.288" as="targetPoint"/>
                        <Array as="points">
                            <mxPoint x="-381" y="-392"/>
                            <mxPoint x="-378" y="-355"/>
                            <mxPoint x="-486" y="-355"/>
                        </Array>
                    </mxGeometry>
                </mxCell>
                <mxCell id="84" value="[Autenticazione fallita]" style="edgeLabel;html=1;align=center;verticalAlign=middle;resizable=0;points=[];" parent="45" vertex="1" connectable="0">
                    <mxGeometry x="-0.3413" y="-1" relative="1" as="geometry">
                        <mxPoint x="-11" y="-17" as="offset"/>
                    </mxGeometry>
                </mxCell>
                <mxCell id="46" value="[registrazione fallita]" style="html=1;verticalAlign=bottom;labelBackgroundColor=none;endArrow=block;endFill=1;rounded=0;startSize=14;endSize=14;sourcePerimeterSpacing=8;targetPerimeterSpacing=8;exitX=1;exitY=0.25;exitDx=0;exitDy=0;entryX=0.5;entryY=0;entryDx=0;entryDy=0;elbow=vertical;" parent="1" source="47" target="47" edge="1">
                    <mxGeometry x="-0.7788" y="15" width="160" relative="1" as="geometry">
                        <mxPoint x="-456.46399999999994" y="-209.52999999999975" as="sourcePoint"/>
                        <mxPoint x="-375" y="-190" as="targetPoint"/>
                        <Array as="points">
                            <mxPoint x="-375" y="-264"/>
                            <mxPoint x="-375" y="-306"/>
                            <mxPoint x="-486" y="-306"/>
                        </Array>
                        <mxPoint as="offset"/>
                    </mxGeometry>
                </mxCell>
                <mxCell id="47" value="Registrazione" style="html=1;align=center;verticalAlign=top;rounded=1;absoluteArcSize=1;arcSize=10;dashed=0;" parent="1" vertex="1">
                    <mxGeometry x="-556" y="-274" width="140" height="40" as="geometry"/>
                </mxCell>
                <mxCell id="48" value="Login" style="html=1;align=center;verticalAlign=top;rounded=1;absoluteArcSize=1;arcSize=10;dashed=0;" parent="1" vertex="1">
                    <mxGeometry x="-556" y="-432" width="140" height="40" as="geometry"/>
                </mxCell>
                <mxCell id="52" value="" style="html=1;verticalAlign=bottom;labelBackgroundColor=none;endArrow=block;endFill=1;rounded=0;startSize=14;endSize=14;sourcePerimeterSpacing=8;targetPerimeterSpacing=8;exitX=0.5;exitY=1;exitDx=0;exitDy=0;entryX=0.5;entryY=1;entryDx=0;entryDy=0;" parent="1" source="47" target="24" edge="1">
                    <mxGeometry width="160" relative="1" as="geometry">
                        <mxPoint x="-433" y="-120" as="sourcePoint"/>
                        <mxPoint x="-273" y="-120" as="targetPoint"/>
                        <Array as="points">
                            <mxPoint x="-486" y="-209"/>
                            <mxPoint x="-809" y="-214"/>
                        </Array>
                    </mxGeometry>
                </mxCell>
                <mxCell id="90" value="[registrazione completata]" style="edgeLabel;html=1;align=center;verticalAlign=middle;resizable=0;points=[];" parent="52" vertex="1" connectable="0">
                    <mxGeometry x="-0.0665" relative="1" as="geometry">
                        <mxPoint as="offset"/>
                    </mxGeometry>
                </mxCell>
                <mxCell id="53" value="" style="html=1;verticalAlign=bottom;labelBackgroundColor=none;endArrow=block;endFill=1;rounded=0;startSize=14;endSize=14;sourcePerimeterSpacing=8;targetPerimeterSpacing=8;curved=1;exitX=1;exitY=1;exitDx=0;exitDy=0;entryX=0;entryY=0.5;entryDx=0;entryDy=0;" parent="1" source="25" target="47" edge="1">
                    <mxGeometry width="160" relative="1" as="geometry">
                        <mxPoint x="-671" y="-175" as="sourcePoint"/>
                        <mxPoint x="-511" y="-175" as="targetPoint"/>
                        <Array as="points"/>
                    </mxGeometry>
                </mxCell>
                <mxCell id="83" value="[operatore &lt;br&gt;non registrato]" style="edgeLabel;html=1;align=center;verticalAlign=middle;resizable=0;points=[];" parent="53" vertex="1" connectable="0">
                    <mxGeometry x="-0.7" y="17" relative="1" as="geometry">
                        <mxPoint x="-2" y="22" as="offset"/>
                    </mxGeometry>
                </mxCell>
                <mxCell id="54" value="" style="html=1;verticalAlign=bottom;labelBackgroundColor=none;endArrow=block;endFill=1;rounded=0;startSize=14;endSize=14;sourcePerimeterSpacing=8;targetPerimeterSpacing=8;curved=1;exitX=1;exitY=0;exitDx=0;exitDy=0;entryX=0;entryY=0.5;entryDx=0;entryDy=0;" parent="1" source="25" target="48" edge="1">
                    <mxGeometry width="160" relative="1" as="geometry">
                        <mxPoint x="-1044" y="-168" as="sourcePoint"/>
                        <mxPoint x="-875" y="-178" as="targetPoint"/>
                        <Array as="points"/>
                    </mxGeometry>
                </mxCell>
                <mxCell id="82" value="[operatore &lt;br&gt;registrato]" style="edgeLabel;html=1;align=center;verticalAlign=middle;resizable=0;points=[];" parent="54" vertex="1" connectable="0">
                    <mxGeometry x="-0.6108" y="-6" relative="1" as="geometry">
                        <mxPoint x="-2" y="-14" as="offset"/>
                    </mxGeometry>
                </mxCell>
                <mxCell id="55" value="" style="html=1;verticalAlign=bottom;labelBackgroundColor=none;endArrow=block;endFill=1;rounded=0;startSize=14;endSize=14;sourcePerimeterSpacing=8;targetPerimeterSpacing=8;curved=1;entryX=0.5;entryY=0;entryDx=0;entryDy=0;exitX=0.5;exitY=1;exitDx=0;exitDy=0;" parent="1" source="23" target="24" edge="1">
                    <mxGeometry width="160" relative="1" as="geometry">
                        <mxPoint x="-809" y="-496" as="sourcePoint"/>
                        <mxPoint x="-825" y="-181" as="targetPoint"/>
                    </mxGeometry>
                </mxCell>
                <mxCell id="56" value="" style="html=1;verticalAlign=bottom;labelBackgroundColor=none;endArrow=block;endFill=1;rounded=0;startSize=14;endSize=14;sourcePerimeterSpacing=8;targetPerimeterSpacing=8;curved=1;exitX=1;exitY=0.5;exitDx=0;exitDy=0;entryX=0;entryY=0.5;entryDx=0;entryDy=0;" parent="1" source="24" target="25" edge="1">
                    <mxGeometry width="160" relative="1" as="geometry">
                        <mxPoint x="-799" y="-222" as="sourcePoint"/>
                        <mxPoint x="-639" y="-222" as="targetPoint"/>
                    </mxGeometry>
                </mxCell>
                <mxCell id="57" value="Centro&#10;Associato?" style="rhombus;" parent="1" vertex="1">
                    <mxGeometry x="-306" y="-461" width="106" height="80" as="geometry"/>
                </mxCell>
                <mxCell id="59" value="" style="html=1;verticalAlign=bottom;labelBackgroundColor=none;endArrow=block;endFill=1;rounded=0;startSize=14;endSize=14;sourcePerimeterSpacing=8;targetPerimeterSpacing=8;curved=1;exitX=1;exitY=0.25;exitDx=0;exitDy=0;entryX=0;entryY=0.5;entryDx=0;entryDy=0;" parent="1" source="48" target="57" edge="1">
                    <mxGeometry width="160" relative="1" as="geometry">
                        <mxPoint x="-330" y="-461" as="sourcePoint"/>
                        <mxPoint x="-170" y="-461" as="targetPoint"/>
                    </mxGeometry>
                </mxCell>
                <mxCell id="85" value="[Autenticato]" style="edgeLabel;html=1;align=center;verticalAlign=middle;resizable=0;points=[];" parent="59" vertex="1" connectable="0">
                    <mxGeometry x="-0.3278" y="3" relative="1" as="geometry">
                        <mxPoint x="13" y="1" as="offset"/>
                    </mxGeometry>
                </mxCell>
                <mxCell id="60" value="" style="html=1;verticalAlign=bottom;labelBackgroundColor=none;endArrow=block;endFill=1;rounded=0;startSize=14;endSize=14;sourcePerimeterSpacing=8;targetPerimeterSpacing=8;exitX=0.5;exitY=0;exitDx=0;exitDy=0;entryX=0.5;entryY=1;entryDx=0;entryDy=0;" parent="1" source="57" target="38" edge="1">
                    <mxGeometry width="160" relative="1" as="geometry">
                        <mxPoint x="-285" y="-593" as="sourcePoint"/>
                        <mxPoint x="-125" y="-593" as="targetPoint"/>
                        <Array as="points"/>
                    </mxGeometry>
                </mxCell>
                <mxCell id="86" value="[centro associato]" style="edgeLabel;html=1;align=center;verticalAlign=middle;resizable=0;points=[];" parent="60" vertex="1" connectable="0">
                    <mxGeometry x="0.1565" y="-20" relative="1" as="geometry">
                        <mxPoint as="offset"/>
                    </mxGeometry>
                </mxCell>
                <mxCell id="61" value="" style="html=1;verticalAlign=bottom;labelBackgroundColor=none;endArrow=block;endFill=1;rounded=0;startSize=14;endSize=14;sourcePerimeterSpacing=8;targetPerimeterSpacing=8;exitX=0.5;exitY=1;exitDx=0;exitDy=0;entryX=0.5;entryY=0;entryDx=0;entryDy=0;" parent="1" source="57" target="37" edge="1">
                    <mxGeometry width="160" relative="1" as="geometry">
                        <mxPoint x="-295" y="-239" as="sourcePoint"/>
                        <mxPoint x="-135" y="-239" as="targetPoint"/>
                        <Array as="points"/>
                    </mxGeometry>
                </mxCell>
                <mxCell id="87" value="[centro non associato" style="edgeLabel;html=1;align=center;verticalAlign=middle;resizable=0;points=[];" parent="61" vertex="1" connectable="0">
                    <mxGeometry x="-0.6139" y="10" relative="1" as="geometry">
                        <mxPoint x="-10" y="5" as="offset"/>
                    </mxGeometry>
                </mxCell>
                <mxCell id="62" value="Assoicia un centro &lt;br&gt;di monitoraggio" style="html=1;align=center;verticalAlign=top;rounded=1;absoluteArcSize=1;arcSize=10;dashed=0;" parent="1" vertex="1">
                    <mxGeometry x="-333" y="-259" width="161" height="41" as="geometry"/>
                </mxCell>
                <mxCell id="63" value="Centro di monitoraggio&#10; già registrato?" style="rhombus;" parent="1" vertex="1">
                    <mxGeometry x="-325.5" y="-180" width="146" height="107" as="geometry"/>
                </mxCell>
                <mxCell id="64" value="Registra centro &lt;br&gt;di monitoraggio" style="html=1;align=center;verticalAlign=top;rounded=1;absoluteArcSize=1;arcSize=10;dashed=0;" parent="1" vertex="1">
                    <mxGeometry x="-134.5" y="-70" width="140" height="40" as="geometry"/>
                </mxCell>
                <mxCell id="65" value="Associa punti di interesse&lt;br&gt;da monitorare" style="html=1;align=center;verticalAlign=top;rounded=1;absoluteArcSize=1;arcSize=10;dashed=0;" parent="1" vertex="1">
                    <mxGeometry x="36.5" y="-70" width="140" height="40" as="geometry"/>
                </mxCell>
                <mxCell id="66" value="Scegli centro &lt;br&gt;di monitoraggio" style="html=1;align=center;verticalAlign=top;rounded=1;absoluteArcSize=1;arcSize=10;dashed=0;" parent="1" vertex="1">
                    <mxGeometry x="-134.5" y="-215" width="140" height="40" as="geometry"/>
                </mxCell>
                <mxCell id="68" value="" style="html=1;verticalAlign=bottom;labelBackgroundColor=none;endArrow=block;endFill=1;rounded=0;startSize=14;endSize=14;sourcePerimeterSpacing=8;targetPerimeterSpacing=8;curved=1;exitX=0.5;exitY=1;exitDx=0;exitDy=0;entryX=0.5;entryY=0;entryDx=0;entryDy=0;" parent="1" source="37" target="62" edge="1">
                    <mxGeometry width="160" relative="1" as="geometry">
                        <mxPoint x="18.5" y="-132" as="sourcePoint"/>
                        <mxPoint x="178.5" y="-132" as="targetPoint"/>
                    </mxGeometry>
                </mxCell>
                <mxCell id="69" value="" style="html=1;verticalAlign=bottom;labelBackgroundColor=none;endArrow=block;endFill=1;rounded=0;startSize=14;endSize=14;sourcePerimeterSpacing=8;targetPerimeterSpacing=8;curved=1;exitX=0.5;exitY=1;exitDx=0;exitDy=0;entryX=0.5;entryY=0;entryDx=0;entryDy=0;" parent="1" source="62" target="63" edge="1">
                    <mxGeometry width="160" relative="1" as="geometry">
                        <mxPoint x="131.5" y="-144" as="sourcePoint"/>
                        <mxPoint x="291.5" y="-144" as="targetPoint"/>
                    </mxGeometry>
                </mxCell>
                <mxCell id="70" value="[centro non &lt;br&gt;registrato]" style="html=1;verticalAlign=bottom;labelBackgroundColor=none;endArrow=block;endFill=1;rounded=0;startSize=14;endSize=14;sourcePerimeterSpacing=8;targetPerimeterSpacing=8;curved=1;exitX=1;exitY=1;exitDx=0;exitDy=0;entryX=0;entryY=0.5;entryDx=0;entryDy=0;" parent="1" source="63" target="64" edge="1">
                    <mxGeometry x="0.0208" y="-20" width="160" relative="1" as="geometry">
                        <mxPoint x="258.5" y="22" as="sourcePoint"/>
                        <mxPoint x="418.5" y="22" as="targetPoint"/>
                        <Array as="points"/>
                        <mxPoint as="offset"/>
                    </mxGeometry>
                </mxCell>
                <mxCell id="71" value="" style="html=1;verticalAlign=bottom;labelBackgroundColor=none;endArrow=block;endFill=1;rounded=0;startSize=14;endSize=14;sourcePerimeterSpacing=8;targetPerimeterSpacing=8;curved=1;entryX=0;entryY=0.5;entryDx=0;entryDy=0;exitX=1;exitY=0;exitDx=0;exitDy=0;" parent="1" source="63" target="66" edge="1">
                    <mxGeometry width="160" relative="1" as="geometry">
                        <mxPoint x="-151.5" y="-15" as="sourcePoint"/>
                        <mxPoint x="351.5" y="-472" as="targetPoint"/>
                        <Array as="points"/>
                    </mxGeometry>
                </mxCell>
                <mxCell id="88" value="[centro già &lt;br&gt;registrato]" style="edgeLabel;html=1;align=center;verticalAlign=middle;resizable=0;points=[];" parent="71" vertex="1" connectable="0">
                    <mxGeometry x="-0.0717" y="-6" relative="1" as="geometry">
                        <mxPoint as="offset"/>
                    </mxGeometry>
                </mxCell>
                <mxCell id="72" value="" style="html=1;verticalAlign=bottom;labelBackgroundColor=none;endArrow=block;endFill=1;rounded=0;startSize=14;endSize=14;sourcePerimeterSpacing=8;targetPerimeterSpacing=8;curved=1;exitX=1;exitY=0.5;exitDx=0;exitDy=0;entryX=0;entryY=0.5;entryDx=0;entryDy=0;" parent="1" source="64" target="65" edge="1">
                    <mxGeometry width="160" relative="1" as="geometry">
                        <mxPoint x="217.5" y="28" as="sourcePoint"/>
                        <mxPoint x="377.5" y="28" as="targetPoint"/>
                    </mxGeometry>
                </mxCell>
                <mxCell id="73" value="" style="html=1;verticalAlign=bottom;labelBackgroundColor=none;endArrow=block;endFill=1;rounded=0;startSize=14;endSize=14;sourcePerimeterSpacing=8;targetPerimeterSpacing=8;exitX=0.5;exitY=0;exitDx=0;exitDy=0;entryX=1;entryY=1;entryDx=0;entryDy=0;" parent="1" source="66" target="38" edge="1">
                    <mxGeometry width="160" relative="1" as="geometry">
                        <mxPoint x="729" y="-357" as="sourcePoint"/>
                        <mxPoint x="889" y="-357" as="targetPoint"/>
                        <Array as="points">
                            <mxPoint x="-60" y="-420"/>
                        </Array>
                    </mxGeometry>
                </mxCell>
                <mxCell id="89" value="[aggiorna area riservata]" style="edgeLabel;html=1;align=center;verticalAlign=middle;resizable=0;points=[];" parent="73" vertex="1" connectable="0">
                    <mxGeometry x="0.1089" y="-1" relative="1" as="geometry">
                        <mxPoint x="-53" y="-44" as="offset"/>
                    </mxGeometry>
                </mxCell>
                <mxCell id="75" value="Inserisci una misurazione" style="html=1;align=center;verticalAlign=top;rounded=1;absoluteArcSize=1;arcSize=10;dashed=0;" parent="1" vertex="1">
                    <mxGeometry x="-134.5" y="-562" width="161" height="41" as="geometry"/>
                </mxCell>
                <mxCell id="76" value="Seleziona punto di interesse" style="html=1;align=center;verticalAlign=top;rounded=1;absoluteArcSize=1;arcSize=10;dashed=0;" parent="1" vertex="1">
                    <mxGeometry x="49" y="-562.5" width="161" height="41" as="geometry"/>
                </mxCell>
                <mxCell id="77" value="Registra i dati" style="html=1;align=center;verticalAlign=top;rounded=1;absoluteArcSize=1;arcSize=10;dashed=0;" parent="1" vertex="1">
                    <mxGeometry x="49" y="-488" width="161" height="41" as="geometry"/>
                </mxCell>
                <mxCell id="78" value="" style="html=1;verticalAlign=bottom;labelBackgroundColor=none;endArrow=block;endFill=1;rounded=0;startSize=14;endSize=14;sourcePerimeterSpacing=8;targetPerimeterSpacing=8;curved=1;exitX=1;exitY=0.5;exitDx=0;exitDy=0;entryX=0;entryY=0.5;entryDx=0;entryDy=0;" parent="1" source="38" target="75" edge="1">
                    <mxGeometry width="160" relative="1" as="geometry">
                        <mxPoint x="76" y="-460" as="sourcePoint"/>
                        <mxPoint x="236" y="-460" as="targetPoint"/>
                    </mxGeometry>
                </mxCell>
                <mxCell id="79" value="" style="html=1;verticalAlign=bottom;labelBackgroundColor=none;endArrow=block;endFill=1;rounded=0;startSize=14;endSize=14;sourcePerimeterSpacing=8;targetPerimeterSpacing=8;curved=1;exitX=1;exitY=0.5;exitDx=0;exitDy=0;entryX=0;entryY=0.5;entryDx=0;entryDy=0;" parent="1" source="75" edge="1" target="76">
                    <mxGeometry width="160" relative="1" as="geometry">
                        <mxPoint x="387" y="-504" as="sourcePoint"/>
                        <mxPoint x="264" y="-534" as="targetPoint"/>
                    </mxGeometry>
                </mxCell>
                <mxCell id="81" value="" style="html=1;verticalAlign=bottom;labelBackgroundColor=none;endArrow=block;endFill=1;rounded=0;startSize=14;endSize=14;sourcePerimeterSpacing=8;targetPerimeterSpacing=8;curved=1;exitX=0.5;exitY=1;exitDx=0;exitDy=0;entryX=0.5;entryY=0;entryDx=0;entryDy=0;" parent="1" source="76" target="77" edge="1">
                    <mxGeometry width="160" relative="1" as="geometry">
                        <mxPoint x="709" y="-428" as="sourcePoint"/>
                        <mxPoint x="869" y="-428" as="targetPoint"/>
                    </mxGeometry>
                </mxCell>
            </root>
        </mxGraphModel>
    </diagram>
</mxfile>